<?xml version="1.0" encoding="utf-8"?>
<!-- Generator: Adobe Illustrator 16.0.4, SVG Export Plug-In . SVG Version: 6.00 Build 0)  -->
<!DOCTYPE svg PUBLIC "-//W3C//DTD SVG 1.1//EN" "http://www.w3.org/Graphics/SVG/1.1/DTD/svg11.dtd">
<svg version="1.1" id="Layer_1" xmlns="http://www.w3.org/2000/svg" xmlns:xlink="http://www.w3.org/1999/xlink" x="0px" y="0px"
	 width="539.911px" height="85.427px" viewBox="1 575.187 539.911 85.427" enable-background="new 1 575.187 539.911 85.427"
	 xml:space="preserve">
<g>
	<g>
		<path d="M10.295,656.983c27.797-17.882,59.312-4.957,75.069,3.63C63.587,651.938,31.718,649.901,10.295,656.983z"/>
		<path d="M59.072,575.187c13.367,0,24.787,7.879,30.01,19.122H78.636c-4.604-5.666-11.774-9.296-19.653-9.296
			c-7.878,0-14.783,3.541-19.387,9.03c0.266-0.178,0.531-0.354,0.708-0.531c10.889-7.79,25.495,0.797,25.495,0.797
			s-13.81-4.072-23.104,2.566c-9.384,6.551-7.879,19.653-7.879,19.653s-0.088-0.178-0.177-0.443c0,0.178,0.089,0.266,0.089,0.443
			c-2.213-1.594-4.958-2.745-7.967-3.011c-0.354-1.858-0.531-3.895-0.531-5.842C26.318,589.705,41.013,575.187,59.072,575.187
			L59.072,575.187z M17.111,649.37v-2.832c8.676-6.374,24.61-14.695,43.908-8.765c29.213,9.118,47.803,21.601,70.377,16.023
			c22.574-5.577,24.521-17.971,24.521-17.971s-3.983,17.439-26.203,21.246s-42.669-0.442-68.784-10.181
			C43.403,640.43,26.318,645.476,17.111,649.37L17.111,649.37z M17.111,643.793c1.594-1.062,3.275-2.035,4.78-2.921
			c-0.708-0.442-1.416-0.974-2.036-1.594c-1.151-1.15-2.036-2.479-2.745-3.718v6.02l0.177,0.089c0.266,0.266,0.62,0.531,0.885,0.797
			c-0.354-0.178-0.708-0.354-1.062-0.531V643.793L17.111,643.793z M17.111,615.643v-10.269c2.125-0.708,4.426-1.151,6.728-1.239
			c-0.088,1.15-0.177,2.39-0.177,3.629c0,2.036,0.177,4.072,0.531,5.932C21.626,613.695,19.147,614.403,17.111,615.643z
			 M17.111,605.285v10.269c-4.603,2.656-7.702,7.525-7.702,13.19c0,5.577,3.099,10.446,7.702,13.19v1.771
			c-1.771,1.239-3.629,2.655-5.134,3.718C5.338,643.263,1,635.915,1,627.594C1,617.236,7.728,608.472,17.111,605.285L17.111,605.285
			z M17.111,635.472c-2.921-5.665-1.859-12.127-1.859-12.127s-4.958,11.419,1.859,18.147V635.472L17.111,635.472z M17.111,646.538
			c-4.515,3.363-7.082,6.107-7.082,6.107c0,0.089,2.656-1.416,7.082-3.363V646.538z"/>
		<path d="M90.587,642.111c0,0,13.898,7.171,27.088,5.932c13.102-1.151,17.085-5.755,17.085-5.755s-4.78,8.853-17.439,9.384
			S90.587,642.377,90.587,642.111z"/>
		<rect x="79.875" y="596.964" width="11.774" height="11.773"/>
		<rect x="126.439" y="629.541" width="9.029" height="9.029"/>
		<rect x="94.04" y="586.253" width="15.58" height="15.58"/>
		<rect x="139.364" y="613.341" width="15.581" height="15.58"/>
		<rect x="111.213" y="603.161" width="8.676" height="8.675"/>
		<rect x="116.967" y="620.334" width="8.675" height="8.676"/>
		<rect x="98.643" y="621.131" width="8.764" height="8.676"/>
		<rect x="129.184" y="603.426" width="8.675" height="8.676"/>
	</g>
	<g>
		<path d="M225.941,620.865c0,3.63-0.62,7.082-1.771,10.004c-1.151,3.098-2.921,5.665-5.134,7.878
			c-2.125,2.125-4.869,3.896-7.967,5.135c-3.098,1.151-6.462,1.771-10.269,1.771H181.59v-49.751h19.033
			c3.807,0,7.259,0.62,10.269,1.771c3.099,1.239,5.754,3.01,7.967,5.135c2.125,2.124,3.895,4.78,5.135,7.879
			C225.321,613.872,225.941,617.236,225.941,620.865z M216.469,620.865c0-2.744-0.354-5.134-1.062-7.436
			c-0.708-2.125-1.771-3.983-3.187-5.488s-3.01-2.656-4.958-3.453c-1.947-0.797-4.161-1.15-6.551-1.15h-9.649v35.145h9.649
			c2.479,0,4.604-0.354,6.551-1.151c1.948-0.797,3.629-1.947,4.958-3.452c1.328-1.505,2.479-3.364,3.187-5.488
			C216.026,626.089,216.469,623.521,216.469,620.865z"/>
		<path d="M239.574,600.062c0,0.708-0.177,1.416-0.442,2.036c-0.266,0.619-0.708,1.15-1.151,1.682
			c-0.443,0.442-1.062,0.886-1.682,1.15c-0.62,0.266-1.328,0.443-2.125,0.443c-0.708,0-1.417-0.178-2.036-0.443
			c-0.62-0.265-1.239-0.619-1.682-1.15c-0.442-0.442-0.885-1.062-1.15-1.682c-0.266-0.62-0.443-1.328-0.443-2.036
			s0.177-1.417,0.443-2.125c0.265-0.619,0.62-1.239,1.15-1.682c0.443-0.442,1.062-0.886,1.682-1.151
			c0.62-0.265,1.328-0.442,2.036-0.442s1.417,0.178,2.125,0.442c0.62,0.266,1.239,0.62,1.682,1.151
			c0.442,0.442,0.885,1.062,1.151,1.682C239.396,598.646,239.574,599.354,239.574,600.062z M238.334,610.331v35.41h-8.499v-35.41
			H238.334z"/>
		<path d="M256.748,609.8c1.505,0,3.01,0.178,4.249,0.442c1.328,0.266,2.567,0.709,3.629,1.328h10.181v3.188
			c0,0.53-0.178,0.885-0.443,1.239c-0.266,0.266-0.707,0.531-1.416,0.619l-3.187,0.531c0.266,0.62,0.442,1.239,0.531,1.859
			c0.088,0.619,0.177,1.327,0.177,2.036c0,1.682-0.354,3.363-1.062,4.691c-0.708,1.416-1.594,2.656-2.921,3.63
			c-1.239,0.974-2.744,1.682-4.338,2.302c-1.682,0.53-3.541,0.796-5.488,0.796c-1.328,0-2.656-0.088-3.895-0.354
			c-1.062,0.619-1.594,1.416-1.594,2.302c0,0.708,0.354,1.239,0.974,1.593c0.62,0.354,1.505,0.531,2.655,0.709
			c1.062,0.177,2.302,0.177,3.63,0.177c1.328,0,2.744,0.089,4.161,0.177c1.417,0.089,2.833,0.354,4.161,0.62
			c1.328,0.266,2.567,0.708,3.629,1.327c1.063,0.62,1.859,1.417,2.656,2.567c0.62,1.062,0.974,2.479,0.974,4.161
			c0,1.505-0.354,3.099-1.15,4.604c-0.797,1.416-1.859,2.832-3.364,3.983c-1.417,1.15-3.275,2.036-5.312,2.833
			c-2.036,0.708-4.515,1.062-7.259,1.062c-2.745,0-5.046-0.266-6.994-0.796c-1.947-0.531-3.629-1.151-4.869-2.036
			c-1.239-0.886-2.213-1.859-2.921-3.01c-0.62-1.062-0.974-2.214-0.974-3.541c0-1.594,0.531-3.099,1.505-4.161
			c0.974-1.062,2.479-1.947,4.249-2.744c-0.885-0.442-1.505-1.062-2.036-1.859s-0.796-1.771-0.796-3.187
			c0-0.531,0.088-1.062,0.265-1.594c0.177-0.531,0.443-1.062,0.797-1.682c0.354-0.531,0.797-1.062,1.417-1.505
			c0.531-0.442,1.239-0.886,2.036-1.328c-1.771-0.974-3.187-2.213-4.25-3.895c-0.974-1.594-1.505-3.541-1.505-5.666
			c0-1.682,0.354-3.364,1.062-4.691c0.708-1.417,1.682-2.656,2.921-3.63s2.744-1.771,4.426-2.302
			C252.853,610.065,254.623,609.8,256.748,609.8z M266.042,647.334c0-0.708-0.177-1.239-0.62-1.682
			c-0.442-0.442-0.974-0.797-1.682-1.062c-0.708-0.266-1.505-0.442-2.567-0.531c-1.062-0.088-1.948-0.177-3.099-0.177
			c-1.062,0-2.125,0-3.364,0s-2.213-0.089-3.275-0.354c-0.974,0.53-1.682,1.15-2.39,1.858s-0.885,1.505-0.885,2.567
			c0,0.62,0.177,1.15,0.443,1.682c0.265,0.531,0.796,0.974,1.416,1.328c0.708,0.354,1.505,0.708,2.656,0.886
			c1.062,0.177,2.479,0.354,3.984,0.354c1.593,0,3.01-0.089,4.072-0.354c1.151-0.266,2.036-0.531,2.833-0.975
			c0.708-0.442,1.239-0.974,1.593-1.505C265.866,648.662,266.042,647.954,266.042,647.334z M256.748,627.239
			c1.062,0,1.948-0.177,2.833-0.442c0.886-0.266,1.417-0.708,1.948-1.151c0.531-0.53,0.885-1.062,1.151-1.771
			c0.266-0.708,0.354-1.505,0.354-2.39c0-1.682-0.531-3.187-1.505-4.161c-1.062-0.974-2.656-1.505-4.692-1.505
			s-3.718,0.531-4.691,1.505c-1.062,0.975-1.505,2.479-1.505,4.161c0,0.797,0.089,1.594,0.354,2.39
			c0.265,0.709,0.62,1.328,1.15,1.771c0.531,0.531,1.151,0.886,1.948,1.151S255.685,627.239,256.748,627.239z"/>
		<path d="M287.111,600.062c0,0.708-0.177,1.416-0.442,2.036c-0.266,0.619-0.708,1.15-1.151,1.682
			c-0.442,0.531-1.062,0.886-1.682,1.15c-0.619,0.266-1.328,0.443-2.125,0.443c-0.707,0-1.416-0.178-2.035-0.443
			c-0.62-0.265-1.24-0.619-1.682-1.15c-0.443-0.442-0.886-1.062-1.151-1.682c-0.266-0.62-0.442-1.328-0.442-2.036
			s0.177-1.417,0.442-2.125c0.266-0.619,0.62-1.239,1.151-1.682c0.441-0.442,1.062-0.886,1.682-1.151
			c0.619-0.265,1.328-0.442,2.035-0.442c0.709,0,1.417,0.178,2.125,0.442c0.619,0.266,1.239,0.62,1.682,1.151
			c0.443,0.442,0.886,1.062,1.151,1.682C286.935,598.646,287.111,599.354,287.111,600.062z M285.783,610.331v35.41h-8.498v-35.41
			H285.783z"/>
		<path d="M303.577,646.272c-3.099,0-5.399-0.886-7.082-2.656c-1.593-1.682-2.479-4.16-2.479-7.259v-19.652h-3.541
			c-0.442,0-0.797-0.177-1.151-0.442c-0.354-0.266-0.531-0.709-0.531-1.328v-3.364l5.666-0.885l1.771-9.649
			c0.089-0.442,0.266-0.797,0.62-1.062c0.354-0.266,0.708-0.354,1.238-0.354h4.427v11.065h9.295v6.02h-9.295v19.121
			c0,1.062,0.266,1.947,0.797,2.656c0.531,0.708,1.239,0.885,2.124,0.885c0.531,0,0.975-0.089,1.328-0.177
			c0.354-0.089,0.62-0.266,0.886-0.354c0.266-0.177,0.531-0.266,0.708-0.354c0.177-0.089,0.442-0.178,0.619-0.178
			c0.266,0,0.443,0.089,0.62,0.178c0.177,0.088,0.354,0.354,0.531,0.53l2.567,4.161c-1.239,0.974-2.744,1.771-4.249,2.391
			C306.941,646.007,305.348,646.272,303.577,646.272z"/>
		<path d="M342.882,645.741h-3.807c-0.797,0-1.416-0.089-1.858-0.354c-0.443-0.266-0.797-0.708-0.975-1.416l-0.708-2.567
			c-0.885,0.797-1.771,1.505-2.655,2.036c-0.886,0.619-1.683,1.062-2.744,1.505c-0.886,0.442-1.859,0.708-2.922,0.885
			c-0.974,0.178-2.124,0.266-3.452,0.266c-1.505,0-2.921-0.177-4.161-0.619c-1.239-0.354-2.39-0.974-3.275-1.771
			c-0.885-0.797-1.593-1.771-2.036-3.01c-0.442-1.151-0.708-2.656-0.708-4.161c0-1.327,0.354-2.655,1.062-3.983
			c0.708-1.239,1.859-2.479,3.541-3.541s3.807-1.859,6.462-2.655c2.656-0.797,6.021-0.975,10.092-0.975v-2.035
			c0-2.391-0.53-4.161-1.505-5.312c-0.974-1.151-2.479-1.683-4.337-1.683c-1.328,0-2.567,0.178-3.453,0.442
			c-0.885,0.266-1.682,0.709-2.479,1.062c-0.708,0.354-1.239,0.708-1.859,1.062c-0.619,0.354-1.15,0.442-1.858,0.442
			c-0.531,0-1.062-0.177-1.417-0.442c-0.442-0.266-0.708-0.619-0.974-1.062l-1.505-2.744c4.072-3.718,8.941-5.577,14.695-5.577
			c2.036,0,3.896,0.354,5.488,0.974c1.594,0.709,3.01,1.594,4.161,2.833c1.062,1.151,1.947,2.656,2.567,4.338
			c0.531,1.682,0.885,3.541,0.885,5.488v22.485h-0.266V645.741z M326.328,640.43c0.885,0,1.682-0.089,2.479-0.266
			c0.708-0.177,1.416-0.354,2.036-0.708c0.619-0.354,1.239-0.708,1.858-1.151c0.62-0.442,1.24-0.974,1.771-1.593v-5.932
			c-2.479,0-4.515,0.177-6.196,0.442c-1.594,0.266-3.01,0.709-3.983,1.151s-1.683,1.062-2.125,1.682
			c-0.442,0.62-0.619,1.328-0.619,2.036c0,1.505,0.442,2.656,1.327,3.275C323.761,640.164,324.911,640.43,326.328,640.43z"/>
		<path d="M356.869,594.574v51.167h-8.499v-51.167H356.869z"/>
		<path d="M411.312,620.865c0,3.63-0.62,7.082-1.771,10.092c-1.15,3.099-2.921,5.755-5.135,8.145
			c-2.124,2.213-4.868,4.072-7.967,5.312s-6.462,1.859-10.269,1.859s-7.26-0.62-10.27-1.859s-5.754-3.099-8.056-5.312
			c-2.213-2.213-3.983-4.957-5.134-8.145c-1.151-3.098-1.771-6.462-1.771-10.092c0-3.629,0.619-7.082,1.771-10.092
			c1.15-3.098,3.01-5.754,5.134-8.144c2.302-2.214,4.869-4.072,8.056-5.312c3.099-1.239,6.551-1.859,10.27-1.859
			c3.718,0,7.259,0.62,10.269,1.859c3.099,1.239,5.754,3.098,7.967,5.312c2.125,2.302,3.896,4.957,5.135,8.056
			C410.78,613.783,411.312,617.236,411.312,620.865z M401.839,620.865c0-2.744-0.354-5.134-1.062-7.436
			c-0.709-2.125-1.771-3.983-3.188-5.488c-1.416-1.505-3.01-2.745-4.957-3.541c-1.947-0.797-4.161-1.151-6.551-1.151
			c-2.479,0-4.604,0.354-6.551,1.151c-1.947,0.796-3.63,1.947-4.957,3.541c-1.328,1.593-2.479,3.363-3.188,5.488
			c-0.708,2.124-1.062,4.604-1.062,7.436c0,2.744,0.354,5.135,1.062,7.348s1.771,3.983,3.188,5.488
			c1.327,1.506,3.098,2.656,4.957,3.453c1.947,0.797,4.16,1.15,6.551,1.15c2.479,0,4.604-0.354,6.551-1.15s3.63-1.947,4.957-3.453
			c1.328-1.505,2.479-3.363,3.188-5.488C401.485,626.089,401.839,623.521,401.839,620.865z"/>
		<path d="M439.551,617.855c-0.266,0.354-0.531,0.531-0.708,0.708c-0.266,0.178-0.62,0.266-1.062,0.266s-0.885-0.088-1.239-0.354
			s-0.886-0.531-1.416-0.886c-0.531-0.354-1.24-0.619-2.036-0.885c-0.797-0.266-1.771-0.354-3.01-0.354
			c-1.505,0-2.833,0.266-3.984,0.797c-1.062,0.531-2.036,1.328-2.832,2.391c-0.709,0.974-1.239,2.213-1.683,3.718
			c-0.354,1.416-0.531,3.099-0.531,4.869c0,1.858,0.178,3.541,0.62,5.046c0.354,1.416,0.974,2.744,1.682,3.718
			s1.683,1.682,2.833,2.302c1.062,0.531,2.213,0.797,3.63,0.797c1.416,0,2.479-0.178,3.275-0.531
			c0.797-0.354,1.505-0.708,2.036-1.062s1.062-0.797,1.505-1.062c0.442-0.266,0.885-0.531,1.416-0.531
			c0.708,0,1.15,0.266,1.505,0.797l2.479,3.099c-0.885,1.062-1.947,1.947-3.098,2.833c-1.062,0.796-2.302,1.327-3.453,1.771
			c-1.15,0.442-2.479,0.708-3.718,0.885s-2.567,0.266-3.807,0.266c-2.125,0-4.249-0.442-6.108-1.239
			c-1.858-0.797-3.629-1.947-5.046-3.63c-1.416-1.593-2.655-3.452-3.452-5.754c-0.797-2.213-1.239-4.869-1.239-7.79
			c0-2.656,0.354-4.957,1.062-7.259c0.708-2.214,1.771-4.161,3.275-5.754c1.416-1.594,3.275-2.922,5.399-3.807
			c2.125-0.886,4.604-1.328,7.437-1.328c2.655,0,4.957,0.442,6.993,1.239c1.947,0.797,3.807,2.036,5.312,3.63L439.551,617.855z"/>
		<path d="M458.85,609.8c2.213,0,4.249,0.354,6.107,1.062c1.859,0.708,3.541,1.682,4.869,3.187c1.328,1.328,2.479,3.099,3.187,5.046
			c0.709,1.948,1.151,4.25,1.151,6.729c0,0.619,0,1.15-0.089,1.593c-0.088,0.443-0.177,0.709-0.266,0.975
			c-0.177,0.266-0.354,0.442-0.619,0.53c-0.266,0.089-0.531,0.178-0.974,0.178h-21.866c0.266,3.629,1.239,6.285,2.922,8.056
			c1.682,1.682,3.983,2.567,6.728,2.567c1.328,0,2.567-0.178,3.63-0.443c0.974-0.354,1.858-0.708,2.655-1.062
			c0.797-0.354,1.416-0.709,1.947-1.062c0.531-0.354,1.062-0.442,1.594-0.442c0.354,0,0.62,0.088,0.886,0.177
			c0.265,0.177,0.442,0.354,0.619,0.531l2.479,3.098c-0.885,1.062-1.947,1.948-3.187,2.833c-1.239,0.886-2.479,1.328-3.718,1.771
			c-1.239,0.443-2.656,0.708-3.896,0.886c-1.328,0.177-2.655,0.266-3.896,0.266c-2.479,0-4.78-0.443-6.904-1.239
			c-2.036-0.797-3.983-1.948-5.488-3.63s-2.833-3.63-3.719-5.931c-0.885-2.391-1.327-5.047-1.327-8.233
			c0-2.479,0.354-4.691,1.15-6.728c0.797-2.125,1.859-3.983,3.364-5.488c1.416-1.506,3.275-2.833,5.312-3.719
			C453.715,610.242,456.104,609.8,458.85,609.8z M458.938,615.997c-2.479,0-4.426,0.708-5.843,2.036
			c-1.416,1.416-2.213,3.452-2.744,5.931h16.023c0-1.062-0.178-2.124-0.443-3.187c-0.265-1.062-0.708-1.771-1.327-2.567
			c-0.62-0.708-1.417-1.328-2.391-1.682C461.328,616.174,460.177,615.997,458.938,615.997z"/>
		<path d="M505.324,645.741h-3.807c-0.796,0-1.416-0.089-1.858-0.354s-0.797-0.708-0.974-1.416l-0.708-2.567
			c-0.886,0.797-1.771,1.505-2.656,2.036c-0.885,0.619-1.682,1.062-2.744,1.505c-0.886,0.442-1.859,0.708-2.921,0.885
			c-0.975,0.178-2.125,0.266-3.453,0.266c-1.505,0-2.921-0.177-4.16-0.619c-1.239-0.354-2.391-0.974-3.275-1.771
			c-0.886-0.797-1.594-1.771-2.036-3.01c-0.442-1.151-0.708-2.656-0.708-4.161c0-1.327,0.354-2.655,1.062-3.983
			c0.709-1.239,1.859-2.479,3.541-3.541c1.683-1.062,3.807-1.859,6.463-2.655c2.744-0.709,6.02-0.975,10.092-0.975v-2.035
			c0-2.391-0.531-4.161-1.505-5.312c-0.974-1.151-2.479-1.683-4.338-1.683c-1.328,0-2.567,0.178-3.452,0.442
			c-0.886,0.266-1.683,0.709-2.479,1.062c-0.708,0.354-1.239,0.708-1.858,1.062c-0.62,0.354-1.151,0.442-1.859,0.442
			c-0.531,0-1.062-0.177-1.416-0.442c-0.442-0.266-0.708-0.619-0.974-1.062l-1.505-2.744c4.071-3.718,8.94-5.577,14.694-5.577
			c2.036,0,3.896,0.354,5.489,0.974c1.593,0.709,3.01,1.594,4.16,2.833c1.062,1.151,1.947,2.656,2.567,4.338
			c0.531,1.682,0.885,3.541,0.885,5.488v22.485h-0.266V645.741z M488.682,640.43c0.886,0,1.683-0.089,2.479-0.266
			c0.796-0.177,1.416-0.354,2.035-0.708c0.62-0.354,1.24-0.708,1.859-1.151c0.62-0.442,1.239-0.974,1.771-1.593v-5.932
			c-2.479,0-4.515,0.177-6.196,0.442c-1.594,0.266-3.011,0.709-3.984,1.151s-1.682,1.062-2.124,1.682
			c-0.442,0.62-0.62,1.328-0.62,2.036c0,1.505,0.442,2.656,1.328,3.275C486.203,640.164,487.266,640.43,488.682,640.43z"/>
		<path d="M510.193,645.741v-35.41h5.223c1.062,0,1.771,0.531,2.125,1.505l0.531,2.833c0.708-0.708,1.416-1.416,2.213-1.947
			c0.797-0.62,1.594-1.062,2.567-1.505c0.885-0.443,1.771-0.797,2.833-0.975c0.974-0.265,2.036-0.354,3.363-0.354
			c1.859,0,3.63,0.354,5.135,0.974s2.744,1.505,3.718,2.833c0.974,1.15,1.683,2.655,2.214,4.249c0.53,1.594,0.796,3.452,0.796,5.4
			v22.484h-8.498v-22.484c0-2.125-0.531-3.807-1.505-5.046c-0.974-1.151-2.567-1.771-4.515-1.771c-1.416,0-2.921,0.354-4.161,0.974
			c-1.239,0.619-2.566,1.505-3.629,2.744v25.583h-8.498v-0.088H510.193z"/>
	</g>
</g>
</svg>
