<?xml version="1.0" encoding="utf-8"?>
<!-- Generator: Adobe Illustrator 16.0.4, SVG Export Plug-In . SVG Version: 6.00 Build 0)  -->
<!DOCTYPE svg PUBLIC "-//W3C//DTD SVG 1.1//EN" "http://www.w3.org/Graphics/SVG/1.1/DTD/svg11.dtd">
<svg version="1.1" id="Layer_1" xmlns="http://www.w3.org/2000/svg" xmlns:xlink="http://www.w3.org/1999/xlink" x="0px" y="0px"
	 width="540.002px" height="51.908px" viewBox="169.399 741.246 540.002 51.908"
	 enable-background="new 169.399 741.246 540.002 51.908" xml:space="preserve">
<g id="Layer_1_1_" display="none">
	<g display="inline">
		<path fill="#CC9548" d="M633.727,666.224c0,0,9.638,52.439-183.861,52.439h-30.033c-193.499,0-183.862-52.439-183.862-52.439
			c-21.283,28.556,6.503,64.854,11.824,79.043c5.321,14.189,172.038,4.14,172.038,4.14v-0.179h30.033v0.179
			c0,0,166.718,10.05,172.038-4.14C627.224,731.078,655.01,694.778,633.727,666.224z"/>
		<path fill="#EBD6B9" d="M235.969,690.521c0,0-9.636,39.965,183.862,39.965h30.033c193.499,0,183.861-39.965,183.861-39.965v-5.381
			c0,0,9.638,39.966-183.861,39.966h-30.033c-193.499,0-183.862-39.966-183.862-39.966V690.521L235.969,690.521z"/>
		<path fill="#EBD6B9" d="M235.614,701.518c0,0-9.637,39.966,183.862,39.966h30.033c193.499,0,183.862-39.966,183.862-39.966v-5.38
			c0,0,9.637,39.966-183.862,39.966h-30.033c-193.499,0-183.862-39.966-183.862-39.966V701.518L235.614,701.518z"/>
	</g>
	<path display="inline" fill="#996928" d="M642.891,638.319l-11.884,5.261c0.061,0.65,12.534,54.745-17.145,88.147
		c-8.75,9.813-19.982,14.722-34.585,14.722h-99.145h-91.222h-99.146c-14.603,0-25.953-4.789-34.584-14.722
		c-25.599-29.265-17.736-92.108-17.677-92.699l-5.675-0.77l-5.853-0.769c-0.354,2.777-8.868,68.697,20.278,102.041
		c10.878,12.474,25.539,18.74,43.512,18.74h99.146h91.222h99.145c17.973,0,32.634-6.325,43.512-18.74
		C651.936,706.188,643.304,641.156,642.891,638.319z"/>
	<g display="inline">
		<rect x="282.674" y="493.298" fill="#15110E" width="177.359" height="177.359"/>
		<rect x="282.555" y="493.298" fill="#641313" width="88.682" height="44.34"/>
		<rect x="282.555" y="537.756" fill="#996928" width="44.342" height="44.34"/>
		<rect x="326.896" y="537.756" fill="#744921" width="44.34" height="44.34"/>
		<rect x="282.555" y="581.979" fill="#8C5B29" width="44.342" height="44.34"/>
		<rect x="282.555" y="626.377" fill="#D57A16" width="29.562" height="44.34"/>
		<rect x="312.115" y="626.377" fill="#EB9D1B" width="29.56" height="44.34"/>
		<rect x="341.675" y="626.377" fill="#EBD6B9" width="29.562" height="44.34"/>
		<rect x="326.896" y="582.096" fill="#CC9548" width="44.34" height="44.34"/>
	</g>
</g>
<g id="Layer_3" display="none">
	<path display="inline" fill="#996928" d="M697.398,629.806c-0.178-4.434-3.192-1.772-3.192-1.772
		c-10.582-2.72-11.942-14.604-12.062-15.903c7.745-1.063,6.858-2.66,3.666-4.907c-1.95-1.358-8.1-3.487-13.479-5.201
		c-0.71-0.297-1.479-0.593-2.306-0.888c0.944-10.583-12.533-15.903-12.533-15.903c0.118,7.035-0.178,9.104-1.479,12.947
		c-6.443-0.178-12.946,1.714-17.734,7.805c-13.895,17.677-7.036,37.127-5.263,48.301l10.878-7.981c0,0-1.772-10.522-1.301-15.785
		c0.177-1.005,0.296-1.949,0.532-2.777c0.65-2.011,2.481-6.207,7.922-6.207c14.543,0.059,9.577,18.327,20.278,22.938
		c3.9,1.714,6.681,0.295,6.681,0.295c-8.159-8.571-7.98-21.934-7.98-21.934c5.319,5.912,18.209,14.366,21.577,14.544
		C695.093,637.432,697.576,634.239,697.398,629.806z"/>
	<path display="inline" fill="#996928" d="M656.074,598.059c0,0-15.549-3.369-21.047,2.364l8.275,2.365
		C643.304,602.788,659.267,604.089,656.074,598.059z"/>
	<path display="inline" fill="#996928" d="M646.615,603.261c0,0-11.057-3.605-16.555,2.069l8.276,2.365
		C638.279,607.695,649.748,609.291,646.615,603.261z"/>
	<path display="inline" fill="#996928" d="M643.009,608.404c0,0-11.056-3.606-16.554,2.068l8.275,2.364
		C634.731,612.838,646.201,614.375,643.009,608.404z"/>
	<path display="inline" fill="#996928" d="M641.058,613.43c0,0-11.056-3.605-16.554,2.069l8.277,2.364
		C632.781,617.863,644.25,619.46,641.058,613.43z"/>
	<path display="inline" fill="#996928" d="M639.698,618.396c0,0-11.057-3.606-16.555,2.068l8.276,2.364
		C631.421,622.829,642.831,624.366,639.698,618.396z"/>
	<path display="inline" fill="#996928" d="M675.761,738.054c3.312-5.853,5.263-12.592,5.263-19.805
		c0-11.528-4.907-21.934-12.711-29.265c0,0-1.537-1.419-2.307-2.011c-21.047-18.858-21.992-40.732-21.992-40.732h-5.676
		c0,0,0.236,14.069-1.951,32.22c0,0,0,0-0.059,0c-1.064,8.041-0.178,35.059-16.437,54.213c-13.834,16.199-45.167,25.6-45.167,25.6
		h66.215c12.828,0,24.238-6.029,31.569-15.371c1.359-1.479,2.482-3.074,3.251-4.788
		C675.702,738.113,675.702,738.054,675.761,738.054z"/>
	<path display="inline" fill="#996928" d="M192.161,738.054c-3.311-5.853-5.262-12.592-5.262-19.805
		c0-11.528,4.907-21.934,12.711-29.265c0,0,1.537-1.419,2.306-2.011c21.046-18.858,21.992-40.732,21.992-40.732h5.676
		c0,0-0.236,14.069,1.951,32.22c0,0,0,0,0.059,0c1.064,8.041,0.178,35.059,16.436,54.213c13.775,16.258,45.109,25.6,45.109,25.6
		h-66.215c-12.829,0-24.239-6.029-31.57-15.371c-1.36-1.479-2.483-3.074-3.251-4.788
		C192.161,738.113,192.161,738.054,192.161,738.054z"/>
	<path display="inline" fill="#8C5B29" d="M697.398,629.806c-0.178-4.434-3.192-1.772-3.192-1.772
		c-10.582-2.72-11.942-14.604-12.062-15.903c2.483-0.354,4.967-1.183,4.967-1.183s-15.075-4.611-21.639-5.202
		c-31.864-3.017-31.215,14.661-30.445,34.053c0.531,12.651,28.317,111.678,28.317,111.678c3.488-2.364,6.562-5.262,9.164-8.514
		c1.359-1.479,2.482-3.074,3.251-4.789c0,0,0-0.059,0.061-0.059c3.311-5.854,5.262-12.594,5.262-19.807
		c0-11.527-4.907-21.933-12.711-29.264c0,0-1.537-1.419-2.306-2.011c-21.048-18.858-21.993-40.733-21.993-40.733
		s-1.773-10.522-1.301-15.785c0.178-1.005,0.296-1.949,0.531-2.777c0.65-2.011,2.483-6.207,7.923-6.207
		c14.543,0.059,9.577,18.327,20.277,22.938c3.902,1.714,6.681,0.295,6.681,0.295c-8.157-8.571-7.98-21.934-7.98-21.934
		c5.32,5.912,18.209,14.366,21.579,14.544C695.093,637.432,697.576,634.239,697.398,629.806z"/>
	<g display="inline">
		<circle fill="#996928" cx="216.696" cy="638.673" r="20.81"/>
		<circle fill="#CC9548" cx="216.696" cy="638.673" r="14.78"/>
		<circle fill="#996928" cx="216.696" cy="638.674" r="11.824"/>
		<circle fill="#CC9548" cx="216.696" cy="638.674" r="8.868"/>
		<circle fill="#996928" cx="216.696" cy="638.674" r="2.956"/>
	</g>
</g>
<g id="Layer_4" display="none">
	<circle display="inline" fill="#8C5B29" cx="228.342" cy="718.426" r="31.688"/>
	<circle display="inline" fill="#996928" cx="228.342" cy="718.426" r="23.648"/>
	<circle display="inline" fill="#CC9548" cx="228.342" cy="718.426" r="19.687"/>
	<circle display="inline" fill="#996928" cx="228.342" cy="718.426" r="16.79"/>
	<circle display="inline" fill="#8C5B29" cx="639.166" cy="718.426" r="31.688"/>
	<circle display="inline" fill="#996928" cx="639.166" cy="718.426" r="23.648"/>
	<circle display="inline" fill="#CC9548" cx="639.166" cy="718.426" r="19.687"/>
	<circle display="inline" fill="#996928" cx="639.166" cy="718.426" r="16.79"/>
</g>
<g>
	<path fill="#CAF9E3" d="M244.955,756.617c-11.351,0-21.283-6.207-26.604-15.371c-2.601,4.493-4.079,9.755-4.079,15.312
		c0,16.968,13.716,30.684,30.683,30.684c16.967,0,30.684-13.716,30.684-30.684c0-5.558-1.479-10.818-4.08-15.312
		C266.297,750.41,256.365,756.617,244.955,756.617z"/>
	<path fill="#CAF9E3" d="M670.44,756.617c-11.353,0-21.283-6.207-26.604-15.371c-2.601,4.493-4.079,9.755-4.079,15.312
		c0,16.968,13.716,30.684,30.685,30.684c16.967,0,30.683-13.716,30.683-30.684c0-5.558-1.478-10.818-4.079-15.312
		C691.724,750.41,681.791,756.617,670.44,756.617z"/>
	<path fill="#CAF9E3" d="M298.104,756.617c-11.351,0-21.283-6.207-26.604-15.371c-2.602,4.493-4.08,9.755-4.08,15.312
		c0,16.968,13.717,30.684,30.684,30.684c16.968,0,30.684-13.716,30.684-30.684c0-5.558-1.479-10.818-4.079-15.312
		C319.387,750.41,309.514,756.617,298.104,756.617z"/>
	<path fill="#CAF9E3" d="M351.312,756.617c-11.352,0-21.283-6.207-26.604-15.371c-2.602,4.493-4.08,9.755-4.08,15.312
		c0,16.968,13.716,30.684,30.685,30.684c16.968,0,30.684-13.716,30.684-30.684c0-5.558-1.479-10.818-4.08-15.312
		C372.595,750.41,362.662,756.617,351.312,756.617z"/>
	<path fill="#CAF9E3" d="M404.46,756.617c-11.351,0-21.283-6.207-26.604-15.371c-2.603,4.493-4.079,9.755-4.079,15.312
		c0,16.968,13.716,30.684,30.683,30.684c16.968,0,30.684-13.716,30.684-30.684c0-5.558-1.479-10.818-4.078-15.312
		C425.743,750.41,415.812,756.617,404.46,756.617z"/>
	<path fill="#CAF9E3" d="M457.609,756.617c-11.353,0-21.283-6.207-26.604-15.371c-2.602,4.493-4.079,9.755-4.079,15.312
		c0,16.968,13.716,30.684,30.685,30.684c16.967,0,30.683-13.716,30.683-30.684c0-5.558-1.478-10.818-4.079-15.312
		C478.892,750.41,468.96,756.617,457.609,756.617z"/>
	<path fill="#CAF9E3" d="M510.876,756.617c-11.352,0-21.283-6.207-26.604-15.371c-2.602,4.493-4.079,9.755-4.079,15.312
		c0,16.968,13.716,30.684,30.684,30.684c16.967,0,30.683-13.716,30.683-30.684c0-5.558-1.478-10.818-4.078-15.312
		C532.159,750.41,522.227,756.617,510.876,756.617z"/>
	<path fill="#CAF9E3" d="M564.024,756.617c-11.352,0-21.283-6.207-26.604-15.371c-2.602,4.493-4.079,9.755-4.079,15.312
		c0,16.968,13.715,30.684,30.684,30.684c16.968,0,30.684-13.716,30.684-30.684c0-5.558-1.479-10.818-4.079-15.312
		C585.308,750.41,575.375,756.617,564.024,756.617z"/>
	<path fill="#CAF9E3" d="M617.291,756.617c-11.351,0-21.283-6.207-26.604-15.371c-2.603,4.493-4.079,9.755-4.079,15.312
		c0,16.968,13.716,30.684,30.683,30.684c16.968,0,30.684-13.716,30.684-30.684c0-5.558-1.479-10.818-4.078-15.312
		C638.574,750.41,628.643,756.617,617.291,756.617z"/>
	<rect x="172.415" y="756.559" fill="#CAF9E3" width="528.708" height="30.684"/>
	<path fill="#CAF9E3" d="M218.41,741.246c-5.321,9.164-15.253,15.371-26.604,15.371c-7.331,0-14.13-2.602-19.392-6.917v30.624
		c5.262,4.315,12.061,6.917,19.392,6.917c16.967,0,30.683-13.716,30.683-30.684C222.49,750.942,221.012,745.739,218.41,741.246z"/>
</g>
<g>
	<g>
		<path fill="#AEDCC9" d="M200.083,756.617c-11.351,0-21.283-6.207-26.604-15.371c-2.602,4.493-4.08,9.755-4.08,15.312
			c0,16.968,13.716,30.684,30.683,30.684c16.968,0,30.683-13.716,30.683-30.684c0-5.558-1.478-10.818-4.079-15.312
			C221.366,750.41,211.434,756.617,200.083,756.617z"/>
		<path fill="#AEDCC9" d="M253.232,756.617c-11.351,0-21.283-6.207-26.604-15.371c-2.601,4.493-4.079,9.755-4.079,15.312
			c0,16.968,13.716,30.684,30.683,30.684c16.967,0,30.683-13.716,30.683-30.684c0-5.558-1.478-10.818-4.079-15.312
			C274.574,750.41,264.642,756.617,253.232,756.617z"/>
		<path fill="#AEDCC9" d="M306.381,756.617c-11.352,0-21.283-6.207-26.604-15.371c-2.602,4.493-4.079,9.755-4.079,15.312
			c0,16.968,13.716,30.684,30.684,30.684c16.967,0,30.684-13.716,30.684-30.684c0-5.558-1.479-10.818-4.079-15.312
			C327.664,750.41,317.791,756.617,306.381,756.617z"/>
		<path fill="#AEDCC9" d="M359.588,756.617c-11.351,0-21.283-6.207-26.604-15.371c-2.603,4.493-4.079,9.755-4.079,15.312
			c0,16.968,13.716,30.684,30.683,30.684c16.968,0,30.685-13.716,30.685-30.684c0-5.558-1.479-10.818-4.079-15.312
			C380.871,750.41,370.939,756.617,359.588,756.617z"/>
		<path fill="#AEDCC9" d="M412.737,756.617c-11.353,0-21.283-6.207-26.604-15.371c-2.601,4.493-4.079,9.755-4.079,15.312
			c0,16.968,13.716,30.684,30.685,30.684c16.967,0,30.683-13.716,30.683-30.684c0-5.558-1.478-10.818-4.079-15.312
			C434.021,750.41,424.088,756.617,412.737,756.617z"/>
		<path fill="#AEDCC9" d="M465.886,756.617c-11.351,0-21.283-6.207-26.604-15.371c-2.603,4.493-4.08,9.755-4.08,15.312
			c0,16.968,13.716,30.684,30.684,30.684s30.684-13.716,30.684-30.684c0-5.558-1.479-10.818-4.079-15.312
			C487.169,750.41,477.236,756.617,465.886,756.617z"/>
		<path fill="#AEDCC9" d="M519.152,756.617c-11.352,0-21.283-6.207-26.604-15.371c-2.602,4.493-4.079,9.755-4.079,15.312
			c0,16.968,13.716,30.684,30.684,30.684s30.684-13.716,30.684-30.684c0-5.558-1.479-10.818-4.079-15.312
			C540.436,750.41,530.504,756.617,519.152,756.617z"/>
		<path fill="#AEDCC9" d="M572.301,756.617c-11.351,0-21.281-6.207-26.604-15.371c-2.603,4.493-4.079,9.755-4.079,15.312
			c0,16.968,13.716,30.684,30.683,30.684c16.969,0,30.685-13.716,30.685-30.684c0-5.558-1.479-10.818-4.079-15.312
			C593.584,750.41,583.652,756.617,572.301,756.617z"/>
		<path fill="#AEDCC9" d="M625.568,756.617c-11.353,0-21.283-6.207-26.604-15.371c-2.601,4.493-4.079,9.755-4.079,15.312
			c0,16.968,13.716,30.684,30.685,30.684c16.967,0,30.683-13.716,30.683-30.684c0-5.558-1.478-10.818-4.079-15.312
			C646.852,750.41,636.919,756.617,625.568,756.617z"/>
		<path fill="#AEDCC9" d="M678.717,756.617c-11.351,0-21.283-6.207-26.604-15.371c-2.603,4.493-4.08,9.755-4.08,15.312
			c0,16.968,13.716,30.684,30.684,30.684s30.685-13.716,30.685-30.684c0-5.558-1.479-10.818-4.08-15.312
			C700,750.41,690.067,756.617,678.717,756.617z"/>
	</g>
	<rect x="169.4" y="756.559" fill="#AEDCC9" width="540" height="36.596"/>
</g>
</svg>
